# 3ds Max Wavefront OBJ Exporter v0.97b - (c)2007 guruware
# File Created: 09.11.2011 23:00:37

#
# object pillar_square
#

v  -14.9899 0.0000 14.2399
v  -14.9899 0.0000 -14.2399
v  -14.2399 0.0000 -14.9899
v  -14.2399 0.0000 14.9899
v  -9.2500 124.0000 10.0000
v  -9.2500 10.0998 10.0000
v  9.2500 10.0998 10.0000
v  9.2500 124.0000 10.0000
v  10.0000 124.0000 9.2500
v  10.0000 10.0998 9.2500
v  10.0000 10.0998 -9.2500
v  10.0000 124.0000 -9.2500
v  9.2500 124.0000 -10.0000
v  9.2500 10.0998 -10.0000
v  -9.2500 10.0998 -10.0000
v  -9.2500 124.0000 -10.0000
v  -10.0000 124.0000 -9.2500
v  -10.0000 10.0998 -9.2500
v  -10.0000 10.0998 9.2500
v  -10.0000 124.0000 9.2500
v  14.2399 0.0000 14.9899
v  14.2399 5.1563 14.9899
v  -14.2399 5.1563 14.9899
v  14.9899 0.0000 -14.2399
v  14.9899 5.1563 -14.2399
v  14.9899 5.1563 14.2399
v  14.9899 0.0000 14.2399
v  -14.2399 5.1563 -14.9899
v  14.2399 5.1563 -14.9899
v  14.2399 0.0000 -14.9899
v  -14.9899 5.1563 14.2399
v  -14.9899 5.1563 -14.2399
v  8.1893 125.0000 8.9393
v  -8.1893 125.0000 8.9393
v  8.9393 125.0000 -8.1893
v  8.9393 125.0000 8.1893
v  -8.1893 125.0000 -8.9393
v  8.1893 125.0000 -8.9393
v  -8.9393 125.0000 8.1893
v  -8.9393 125.0000 -8.1893
v  -14.2399 250.0000 -14.9899
v  -14.9899 250.0000 -14.2399
v  14.9899 250.0000 -14.2399
v  14.2399 250.0000 -14.9899
v  -10.0000 126.0000 -9.2500
v  -10.0000 126.0000 9.2500
v  -10.0000 239.9002 9.2500
v  -10.0000 239.9002 -9.2500
v  -9.2500 126.0000 10.0000
v  9.2500 126.0000 10.0000
v  9.2500 239.9002 10.0000
v  -9.2500 239.9002 10.0000
v  10.0000 126.0000 9.2500
v  10.0000 126.0000 -9.2500
v  10.0000 239.9002 -9.2500
v  10.0000 239.9002 9.2500
v  9.2500 126.0000 -10.0000
v  -9.2500 126.0000 -10.0000
v  -9.2500 239.9002 -10.0000
v  9.2500 239.9002 -10.0000
v  -14.9899 250.0000 14.2399
v  -14.9899 244.8437 -14.2399
v  -14.9899 244.8437 14.2399
v  14.2399 250.0000 14.9899
v  -14.2399 250.0000 14.9899
v  -14.2399 244.8437 14.9899
v  14.2399 244.8437 14.9899
v  14.9899 250.0000 14.2399
v  14.9899 244.8437 14.2399
v  14.9899 244.8437 -14.2399
v  14.2399 244.8437 -14.9899
v  -14.2399 244.8437 -14.9899
# 72 vertices

vn -0.7173 -0.6303 0.2971
vn -0.7173 -0.6303 -0.2971
vn -0.3694 -0.2612 -0.8918
vn -0.3694 -0.2612 0.8918
vn -0.3640 0.4200 0.8313
vn -0.2966 0.4821 0.8244
vn 0.2966 0.4821 0.8244
vn 0.3640 0.4200 0.8313
vn 0.8313 0.4200 0.3640
vn 0.8244 0.4821 0.2966
vn 0.8244 0.4821 -0.2966
vn 0.8313 0.4200 -0.3640
vn 0.3640 0.4200 -0.8313
vn 0.2966 0.4821 -0.8244
vn -0.2966 0.4821 -0.8244
vn -0.3640 0.4200 -0.8313
vn -0.8313 0.4200 -0.3640
vn -0.8244 0.4821 -0.2966
vn -0.8244 0.4821 0.2966
vn -0.8313 0.4200 0.3640
vn 0.3694 -0.2612 0.8918
vn 0.3659 0.4110 0.8350
vn -0.3659 0.4110 0.8350
vn 0.7173 -0.6303 -0.2971
vn 0.8350 0.4110 -0.3659
vn 0.8350 0.4110 0.3659
vn 0.7173 -0.6303 0.2971
vn -0.3659 0.4110 -0.8350
vn 0.3659 0.4110 -0.8350
vn 0.3694 -0.2612 -0.8918
vn -0.8350 0.4110 0.3659
vn -0.8350 0.4110 -0.3659
vn 0.1686 0.7958 0.5816
vn -0.1686 0.7958 0.5816
vn 0.5816 0.7958 -0.1686
vn 0.5816 0.7958 0.1686
vn -0.1686 0.7958 -0.5816
vn 0.1686 0.7958 -0.5816
vn -0.5816 0.7958 0.1686
vn -0.5816 0.7958 -0.1686
vn 0.0000 -1.0000 -0.0000
vn -0.2971 0.6303 -0.7173
vn -0.8918 0.2612 -0.3694
vn 0.8918 0.2612 -0.3694
vn 0.2971 0.6303 -0.7173
vn -0.8313 -0.4200 -0.3640
vn -0.8313 -0.4200 0.3640
vn -0.8244 -0.4821 0.2966
vn -0.8244 -0.4821 -0.2966
vn -0.3640 -0.4200 0.8313
vn 0.3640 -0.4200 0.8313
vn 0.2966 -0.4821 0.8244
vn -0.2966 -0.4821 0.8244
vn 0.8313 -0.4200 0.3640
vn 0.8313 -0.4200 -0.3640
vn 0.8244 -0.4821 -0.2966
vn 0.8244 -0.4821 0.2966
vn 0.3640 -0.4200 -0.8313
vn -0.3640 -0.4200 -0.8313
vn -0.2966 -0.4821 -0.8244
vn 0.2966 -0.4821 -0.8244
vn -0.8918 0.2612 0.3694
vn -0.8350 -0.4110 -0.3659
vn -0.8350 -0.4110 0.3659
vn 0.2971 0.6303 0.7173
vn -0.2971 0.6303 0.7173
vn -0.3659 -0.4110 0.8350
vn 0.3659 -0.4110 0.8350
vn 0.8918 0.2612 0.3694
vn 0.8350 -0.4110 0.3659
vn 0.8350 -0.4110 -0.3659
vn 0.3659 -0.4110 -0.8350
vn -0.3659 -0.4110 -0.8350
vn -0.5816 -0.7958 -0.1686
vn -0.5816 -0.7958 0.1686
vn -0.1686 -0.7958 0.5816
vn 0.1686 -0.7958 0.5816
vn 0.5816 -0.7958 0.1686
vn 0.5816 -0.7958 -0.1686
vn 0.1686 -0.7958 -0.5816
vn -0.1686 -0.7958 -0.5816
vn 0.0000 1.0000 -0.0000
# 82 vertex normals

vt 0.0938 0.8986 0.0000
vt 0.0938 0.6939 0.0000
vt 0.0992 0.6885 0.0000
vt 0.0992 0.9040 0.0000
vt 0.9775 0.2937 0.0000
vt 0.1584 0.2937 0.0000
vt 0.1584 0.1606 0.0000
vt 0.9775 0.1606 0.0000
vt 0.9775 0.1498 0.0000
vt 0.1584 0.1498 0.0000
vt 0.1584 0.0168 0.0000
vt 0.9775 0.0168 0.0000
vt 0.9775 0.5813 0.0000
vt 0.1584 0.5813 0.0000
vt 0.1584 0.4483 0.0000
vt 0.9775 0.4483 0.0000
vt 0.9775 0.4375 0.0000
vt 0.1584 0.4375 0.0000
vt 0.1584 0.3045 0.0000
vt 0.9775 0.3045 0.0000
vt 0.3039 0.9040 0.0000
vt 0.3039 0.9411 0.0000
vt 0.0992 0.9411 0.0000
vt 0.3093 0.6939 0.0000
vt 0.3464 0.6939 0.0000
vt 0.3464 0.8986 0.0000
vt 0.3093 0.8986 0.0000
vt 0.0992 0.6514 0.0000
vt 0.3039 0.6514 0.0000
vt 0.3039 0.6885 0.0000
vt 0.0567 0.8986 0.0000
vt 0.0567 0.6939 0.0000
vt 0.2681 0.9916 0.0000
vt 0.1350 0.9916 0.0000
vt 0.3969 0.7297 0.0000
vt 0.3969 0.8628 0.0000
vt 0.1350 0.6009 0.0000
vt 0.2681 0.6009 0.0000
vt 0.0062 0.8628 0.0000
vt 0.0062 0.7297 0.0000
vt 0.9879 0.1683 0.0000
vt 0.9879 0.2860 0.0000
vt 0.9879 0.0244 0.0000
vt 0.9879 0.1422 0.0000
vt 0.9879 0.4559 0.0000
vt 0.9879 0.5737 0.0000
vt 0.9879 0.3121 0.0000
vt 0.9879 0.4298 0.0000
vt 0.9775 0.5889 0.0000
vt 0.1584 0.5889 0.0000
vt 0.3464 0.9062 0.0000
vt 0.3093 0.9062 0.0000
vt 0.0938 0.9062 0.0000
vt 0.0567 0.9062 0.0000
vt 0.3115 0.6514 0.0000
vt 0.3115 0.6885 0.0000
vt 0.0567 0.6863 0.0000
vt 0.0938 0.6863 0.0000
vt 0.3995 0.8700 0.0000
vt 0.3490 0.9058 0.0000
vt 0.0541 0.9058 0.0000
vt 0.0036 0.8700 0.0000
vt 0.2753 0.5983 0.0000
vt 0.3111 0.6488 0.0000
vt 0.0036 0.7225 0.0000
vt 0.0541 0.6867 0.0000
vt 0.9905 0.1493 0.0000
vt 0.9801 0.1569 0.0000
vt 0.9801 0.2973 0.0000
vt 0.9905 0.3049 0.0000
vt 0.9905 0.5808 0.0000
vt 0.9801 0.5884 0.0000
vt 0.9905 0.4369 0.0000
vt 0.9801 0.4446 0.0000
# 74 texture coords

g pillar_square
s 1
f 1/1/1 2/2/2 3/3/3 4/4/4 
f 5/5/5 6/6/6 7/7/7 8/8/8 
f 9/9/9 10/10/10 11/11/11 12/12/12 
f 13/13/13 14/14/14 15/15/15 16/16/16 
f 17/17/17 18/18/18 19/19/19 20/20/20 
f 21/21/21 22/22/22 23/23/23 4/4/4 
f 24/24/24 25/25/25 26/26/26 27/27/27 
f 3/3/3 28/28/28 29/29/29 30/30/30 
f 1/1/1 31/31/31 32/32/32 2/2/2 
f 22/22/22 7/33/7 6/34/6 23/23/23 
f 25/25/25 11/35/11 10/36/10 26/26/26 
f 28/28/28 15/37/15 14/38/14 29/29/29 
f 31/31/31 19/39/19 18/40/18 32/32/32 
f 5/5/5 8/8/8 33/41/33 34/42/34 
f 9/9/9 12/12/12 35/43/35 36/44/36 
f 13/13/13 16/16/16 37/45/37 38/46/38 
f 17/17/17 20/20/20 39/47/39 40/48/40 
f 19/19/19 6/6/6 5/5/5 20/20/20 
f 9/9/9 8/8/8 7/7/7 10/10/10 
f 13/13/13 12/49/12 11/50/11 14/14/14 
f 17/17/17 16/16/16 15/15/15 18/18/18 
f 26/26/26 22/51/22 21/52/21 27/27/27 
f 1/1/1 4/53/4 23/54/23 31/31/31 
f 29/29/29 25/55/25 24/56/24 30/30/30 
f 32/32/32 28/57/28 3/58/3 2/2/2 
f 10/36/10 7/59/7 22/60/22 26/26/26 
f 31/31/31 23/61/23 6/62/6 19/39/19 
f 14/38/14 11/63/11 25/64/25 29/29/29 
f 18/40/18 15/65/15 28/66/28 32/32/32 
f 36/44/36 33/67/33 8/68/8 9/9/9 
f 20/20/20 5/69/5 34/70/34 39/47/39 
f 38/46/38 35/71/35 12/72/12 13/13/13 
f 40/48/40 37/73/37 16/74/16 17/17/17 
s 2
f 4/4/41 3/3/41 30/30/41 21/21/41 
s 1
f 21/21/21 30/30/30 24/24/24 27/27/27 
f 41/1/42 42/4/43 43/3/44 44/2/45 
f 45/5/46 46/8/47 47/7/48 48/6/49 
f 49/9/50 50/12/51 51/11/52 52/10/53 
f 53/13/54 54/16/55 55/15/56 56/14/57 
f 57/17/58 58/20/59 59/19/60 60/18/61 
f 61/21/62 42/4/43 62/23/63 63/22/64 
f 64/24/65 65/27/66 66/26/67 67/25/68 
f 43/3/44 68/30/69 69/29/70 70/28/71 
f 41/1/42 44/2/45 71/32/72 72/31/73 
f 63/22/64 62/23/63 48/34/49 47/33/48 
f 67/25/68 66/26/67 52/36/53 51/35/52 
f 70/28/71 69/29/70 56/38/57 55/37/56 
f 72/31/73 71/32/72 60/40/61 59/39/60 
f 45/5/46 40/42/74 39/41/75 46/8/47 
f 49/9/50 34/44/76 33/43/77 50/12/51 
f 53/13/54 36/46/78 35/45/79 54/16/55 
f 57/17/58 38/48/80 37/47/81 58/20/59 
f 59/19/60 58/20/59 45/5/46 48/6/49 
f 49/9/50 52/10/53 47/7/48 46/8/47 
f 53/13/54 56/14/57 51/50/52 50/49/51 
f 57/17/58 60/18/61 55/15/56 54/16/55 
f 66/26/67 65/27/66 61/52/62 63/51/64 
f 41/1/42 72/31/73 62/54/63 42/53/43 
f 69/29/70 68/30/69 64/56/65 67/55/68 
f 71/32/72 44/2/45 43/58/44 70/57/71 
f 52/36/53 66/26/67 63/60/64 47/59/48 
f 72/31/73 59/39/60 48/62/49 62/61/63 
f 56/38/57 69/29/70 67/64/68 51/63/52 
f 60/40/61 71/32/72 70/66/71 55/65/56 
f 34/44/76 49/9/50 46/68/47 39/67/75 
f 58/20/59 37/47/81 40/70/74 45/69/46 
f 36/46/78 53/13/54 50/72/51 33/71/77 
f 38/48/80 57/17/58 54/74/55 35/73/79 
s 2
f 42/4/82 61/21/82 68/30/82 43/3/82 
s 1
f 61/21/62 65/27/66 64/24/65 68/30/69 
# 70 polygons

